<svg width="394" height="49" viewBox="0 0 394 49" fill="none" xmlns="http://www.w3.org/2000/svg">
<path d="M25.738 38H15.02L6.924 13.942L7.062 14.908C7.36867 17.024 7.59867 19.0173 7.752 20.888C7.936 22.728 8.028 24.8287 8.028 27.19V38H0.484V6.03H10.972L19.344 30.18C18.976 27.88 18.6847 25.81 18.47 23.97C18.286 22.13 18.194 20.014 18.194 17.622V6.03H25.738V38ZM50.9564 30.456C50.9564 31.3453 51.0638 32.0047 51.2784 32.434C51.5238 32.8633 51.9378 33.1853 52.5204 33.4L50.8644 38.69C49.3004 38.5673 48.0124 38.2453 47.0004 37.724C46.0191 37.2027 45.2218 36.3747 44.6084 35.24C43.0444 37.632 40.5758 38.828 37.2024 38.828C34.7798 38.828 32.8324 38.1227 31.3604 36.712C29.9191 35.2707 29.1984 33.4153 29.1984 31.146C29.1984 28.4473 30.1951 26.3773 32.1884 24.936C34.1818 23.4947 37.0644 22.774 40.8364 22.774H42.9524V21.946C42.9524 20.6273 42.6764 19.738 42.1244 19.278C41.5724 18.7873 40.5758 18.542 39.1344 18.542C38.3678 18.542 37.4018 18.6647 36.2364 18.91C35.1018 19.1247 33.9364 19.4313 32.7404 19.83L30.9464 14.54C32.4184 13.9267 33.9978 13.4667 35.6844 13.16C37.3711 12.8227 38.9351 12.654 40.3764 12.654C44.0564 12.654 46.7398 13.39 48.4264 14.862C50.1131 16.3033 50.9564 18.5267 50.9564 21.532V30.456ZM39.6864 33.078C40.3611 33.078 40.9744 32.9093 41.5264 32.572C42.1091 32.204 42.5844 31.7133 42.9524 31.1V27.144H41.5724C40.1004 27.144 39.0118 27.42 38.3064 27.972C37.6011 28.4933 37.2484 29.2907 37.2484 30.364C37.2484 31.192 37.4631 31.8513 37.8924 32.342C38.3218 32.8327 38.9198 33.078 39.6864 33.078ZM72.1994 36.804C71.2488 37.4787 70.1448 37.9847 68.8874 38.322C67.6301 38.6593 66.4034 38.828 65.2074 38.828C59.5341 38.828 56.6974 35.7 56.6974 29.444V19.094H53.5234V13.482H56.6974V8.284L64.8854 7.318V13.482H70.4514L69.6234 19.094H64.8854V29.352C64.8854 30.456 65.0541 31.238 65.3914 31.698C65.7594 32.158 66.2961 32.388 67.0014 32.388C67.8601 32.388 68.6881 32.158 69.4854 31.698L72.1994 36.804ZM93.722 30.456C93.722 31.3453 93.8294 32.0047 94.044 32.434C94.2894 32.8633 94.7034 33.1853 95.286 33.4L93.63 38.69C92.066 38.5673 90.778 38.2453 89.766 37.724C88.7847 37.2027 87.9874 36.3747 87.374 35.24C85.81 37.632 83.3414 38.828 79.968 38.828C77.5454 38.828 75.598 38.1227 74.126 36.712C72.6847 35.2707 71.964 33.4153 71.964 31.146C71.964 28.4473 72.9607 26.3773 74.954 24.936C76.9474 23.4947 79.83 22.774 83.602 22.774H85.718V21.946C85.718 20.6273 85.442 19.738 84.89 19.278C84.338 18.7873 83.3414 18.542 81.9 18.542C81.1334 18.542 80.1674 18.6647 79.002 18.91C77.8674 19.1247 76.702 19.4313 75.506 19.83L73.712 14.54C75.184 13.9267 76.7634 13.4667 78.45 13.16C80.1367 12.8227 81.7007 12.654 83.142 12.654C86.822 12.654 89.5054 13.39 91.192 14.862C92.8787 16.3033 93.722 18.5267 93.722 21.532V30.456ZM82.452 33.078C83.1267 33.078 83.74 32.9093 84.292 32.572C84.8747 32.204 85.35 31.7133 85.718 31.1V27.144H84.338C82.866 27.144 81.7774 27.42 81.072 27.972C80.3667 28.4933 80.014 29.2907 80.014 30.364C80.014 31.192 80.2287 31.8513 80.658 32.342C81.0874 32.8327 81.6854 33.078 82.452 33.078ZM113.861 12.654C115.946 12.654 117.587 13.298 118.783 14.586C119.979 15.874 120.577 17.6833 120.577 20.014V38H112.389V21.486C112.389 20.4127 112.236 19.6767 111.929 19.278C111.622 18.8487 111.162 18.634 110.549 18.634C109.261 18.634 108.034 19.5693 106.869 21.44V38H98.6811V13.482H105.811L106.409 16.242C107.513 15.0153 108.663 14.1107 109.859 13.528C111.055 12.9453 112.389 12.654 113.861 12.654ZM144.209 6.03V31.376H156.491L155.571 38H135.699V6.03H144.209ZM169.243 12.654C173.076 12.654 176.081 13.804 178.259 16.104C180.436 18.404 181.525 21.624 181.525 25.764C181.525 28.4013 181.034 30.7013 180.053 32.664C179.071 34.6267 177.645 36.1447 175.775 37.218C173.935 38.2913 171.757 38.828 169.243 38.828C165.409 38.828 162.404 37.678 160.227 35.378C158.049 33.078 156.961 29.858 156.961 25.718C156.961 23.0807 157.451 20.7807 158.433 18.818C159.414 16.8553 160.825 15.3373 162.665 14.264C164.535 13.1907 166.728 12.654 169.243 12.654ZM169.243 18.588C167.924 18.588 166.943 19.1707 166.299 20.336C165.685 21.4707 165.379 23.2647 165.379 25.718C165.379 28.2633 165.685 30.1033 166.299 31.238C166.943 32.342 167.924 32.894 169.243 32.894C170.561 32.894 171.527 32.3267 172.141 31.192C172.785 30.0267 173.107 28.2173 173.107 25.764C173.107 23.2493 172.785 21.4247 172.141 20.29C171.527 19.1553 170.561 18.588 169.243 18.588ZM199.648 12.654C202.714 12.654 205.014 13.804 206.548 16.104C208.081 18.3733 208.848 21.5627 208.848 25.672C208.848 28.1867 208.449 30.4407 207.652 32.434C206.854 34.4273 205.704 35.9913 204.202 37.126C202.73 38.2607 201.028 38.828 199.096 38.828C196.673 38.828 194.726 38 193.254 36.344V47.476L185.066 48.304V13.482H192.334L192.702 16.058C193.652 14.862 194.726 14.0033 195.922 13.482C197.148 12.93 198.39 12.654 199.648 12.654ZM196.474 32.94C199.08 32.94 200.384 30.548 200.384 25.764C200.384 22.9733 200.092 21.0873 199.51 20.106C198.958 19.094 198.114 18.588 196.98 18.588C195.508 18.588 194.266 19.4467 193.254 21.164V31.008C193.714 31.6827 194.189 32.1733 194.68 32.48C195.201 32.7867 195.799 32.94 196.474 32.94ZM234.776 25.35C234.776 25.534 234.73 26.454 234.638 28.11H219.642C219.857 29.9807 220.378 31.2687 221.206 31.974C222.065 32.6487 223.276 32.986 224.84 32.986C225.76 32.986 226.665 32.8173 227.554 32.48C228.474 32.112 229.471 31.56 230.544 30.824L233.856 35.332C232.568 36.4053 231.096 37.264 229.44 37.908C227.784 38.5213 225.99 38.828 224.058 38.828C219.887 38.828 216.713 37.6627 214.536 35.332C212.389 32.9707 211.316 29.812 211.316 25.856C211.316 23.372 211.761 21.1333 212.65 19.14C213.57 17.1467 214.919 15.5673 216.698 14.402C218.477 13.2367 220.623 12.654 223.138 12.654C226.726 12.654 229.563 13.7733 231.648 16.012C233.733 18.22 234.776 21.3327 234.776 25.35ZM226.726 23.05C226.695 21.4247 226.419 20.1673 225.898 19.278C225.377 18.3887 224.503 17.944 223.276 17.944C222.141 17.944 221.283 18.3427 220.7 19.14C220.117 19.9373 219.749 21.3327 219.596 23.326H226.726V23.05ZM247.32 12.654C249.098 12.654 250.785 12.93 252.38 13.482C254.005 14.034 255.385 14.7853 256.52 15.736L253.576 20.244C251.613 19.0173 249.635 18.404 247.642 18.404C246.783 18.404 246.139 18.542 245.71 18.818C245.311 19.0633 245.112 19.416 245.112 19.876C245.112 20.2747 245.219 20.5967 245.434 20.842C245.648 21.0873 246.093 21.3633 246.768 21.67C247.473 21.946 248.577 22.314 250.08 22.774C252.594 23.51 254.45 24.476 255.646 25.672C256.842 26.8373 257.44 28.478 257.44 30.594C257.44 32.25 256.949 33.7067 255.968 34.964C255.017 36.1907 253.683 37.1413 251.966 37.816C250.279 38.4907 248.362 38.828 246.216 38.828C244.13 38.828 242.168 38.506 240.328 37.862C238.518 37.1873 236.985 36.2673 235.728 35.102L239.638 30.732C240.588 31.468 241.6 32.0507 242.674 32.48C243.778 32.9093 244.882 33.124 245.986 33.124C246.967 33.124 247.718 32.9707 248.24 32.664C248.792 32.3267 249.068 31.836 249.068 31.192C249.068 30.7013 248.945 30.318 248.7 30.042C248.485 29.766 248.056 29.5053 247.412 29.26C246.768 28.984 245.664 28.616 244.1 28.156C239.346 26.7453 236.97 24.154 236.97 20.382C236.97 18.9407 237.384 17.6373 238.212 16.472C239.04 15.276 240.22 14.3407 241.754 13.666C243.318 12.9913 245.173 12.654 247.32 12.654ZM295.933 6.03L287.469 38H276.613L267.735 6.03H276.705L282.179 31.79L287.239 6.03H295.933ZM315.951 30.456C315.951 31.3453 316.058 32.0047 316.273 32.434C316.518 32.8633 316.932 33.1853 317.515 33.4L315.859 38.69C314.295 38.5673 313.007 38.2453 311.995 37.724C311.013 37.2027 310.216 36.3747 309.603 35.24C308.039 37.632 305.57 38.828 302.197 38.828C299.774 38.828 297.827 38.1227 296.355 36.712C294.913 35.2707 294.193 33.4153 294.193 31.146C294.193 28.4473 295.189 26.3773 297.183 24.936C299.176 23.4947 302.059 22.774 305.831 22.774H307.947V21.946C307.947 20.6273 307.671 19.738 307.119 19.278C306.567 18.7873 305.57 18.542 304.129 18.542C303.362 18.542 302.396 18.6647 301.231 18.91C300.096 19.1247 298.931 19.4313 297.735 19.83L295.941 14.54C297.413 13.9267 298.992 13.4667 300.679 13.16C302.365 12.8227 303.929 12.654 305.371 12.654C309.051 12.654 311.734 13.39 313.421 14.862C315.107 16.3033 315.951 18.5267 315.951 21.532V30.456ZM304.681 33.078C305.355 33.078 305.969 32.9093 306.521 32.572C307.103 32.204 307.579 31.7133 307.947 31.1V27.144H306.567C305.095 27.144 304.006 27.42 303.301 27.972C302.595 28.4933 302.243 29.2907 302.243 30.364C302.243 31.192 302.457 31.8513 302.887 32.342C303.316 32.8327 303.914 33.078 304.681 33.078ZM327.452 38.828C325.152 38.828 323.374 38.184 322.116 36.896C320.859 35.608 320.23 33.7527 320.23 31.33V3.822L328.418 2.994V31.054C328.418 31.9433 328.817 32.388 329.614 32.388C329.952 32.388 330.304 32.3267 330.672 32.204L332.19 38C330.933 38.552 329.354 38.828 327.452 38.828ZM345.022 12.654C348.855 12.654 351.861 13.804 354.038 16.104C356.215 18.404 357.304 21.624 357.304 25.764C357.304 28.4013 356.813 30.7013 355.832 32.664C354.851 34.6267 353.425 36.1447 351.554 37.218C349.714 38.2913 347.537 38.828 345.022 38.828C341.189 38.828 338.183 37.678 336.006 35.378C333.829 33.078 332.74 29.858 332.74 25.718C332.74 23.0807 333.231 20.7807 334.212 18.818C335.193 16.8553 336.604 15.3373 338.444 14.264C340.315 13.1907 342.507 12.654 345.022 12.654ZM345.022 18.588C343.703 18.588 342.722 19.1707 342.078 20.336C341.465 21.4707 341.158 23.2647 341.158 25.718C341.158 28.2633 341.465 30.1033 342.078 31.238C342.722 32.342 343.703 32.894 345.022 32.894C346.341 32.894 347.307 32.3267 347.92 31.192C348.564 30.0267 348.886 28.2173 348.886 25.764C348.886 23.2493 348.564 21.4247 347.92 20.29C347.307 19.1553 346.341 18.588 345.022 18.588ZM369.033 13.482V38H360.845V13.482H369.033ZM364.939 0.279998C366.319 0.279998 367.438 0.709331 368.297 1.568C369.186 2.42666 369.631 3.5 369.631 4.788C369.631 6.076 369.186 7.14933 368.297 8.008C367.438 8.86667 366.319 9.296 364.939 9.296C363.559 9.296 362.424 8.86667 361.535 8.008C360.676 7.14933 360.247 6.076 360.247 4.788C360.247 3.5 360.676 2.42666 361.535 1.568C362.424 0.709331 363.559 0.279998 364.939 0.279998ZM383.074 12.654C384.852 12.654 386.539 12.93 388.134 13.482C389.759 14.034 391.139 14.7853 392.274 15.736L389.33 20.244C387.367 19.0173 385.389 18.404 383.396 18.404C382.537 18.404 381.893 18.542 381.464 18.818C381.065 19.0633 380.866 19.416 380.866 19.876C380.866 20.2747 380.973 20.5967 381.188 20.842C381.402 21.0873 381.847 21.3633 382.522 21.67C383.227 21.946 384.331 22.314 385.834 22.774C388.348 23.51 390.204 24.476 391.4 25.672C392.596 26.8373 393.194 28.478 393.194 30.594C393.194 32.25 392.703 33.7067 391.722 34.964C390.771 36.1907 389.437 37.1413 387.72 37.816C386.033 38.4907 384.116 38.828 381.97 38.828C379.884 38.828 377.922 38.506 376.082 37.862C374.272 37.1873 372.739 36.2673 371.482 35.102L375.392 30.732C376.342 31.468 377.354 32.0507 378.428 32.48C379.532 32.9093 380.636 33.124 381.74 33.124C382.721 33.124 383.472 32.9707 383.994 32.664C384.546 32.3267 384.822 31.836 384.822 31.192C384.822 30.7013 384.699 30.318 384.454 30.042C384.239 29.766 383.81 29.5053 383.166 29.26C382.522 28.984 381.418 28.616 379.854 28.156C375.1 26.7453 372.724 24.154 372.724 20.382C372.724 18.9407 373.138 17.6373 373.966 16.472C374.794 15.276 375.974 14.3407 377.508 13.666C379.072 12.9913 380.927 12.654 383.074 12.654Z" fill="#141414"/>
</svg>
